<?xml version="1.0" encoding="UTF-8"?>
<svg xmlns="http://www.w3.org/2000/svg" viewBox="0 0 880 360" width="880" height="360" font-family="Segoe UI, sans-serif">
  <rect x="0" y="0" width="880" height="360" fill="#ffffff"/>
  <text x="70" y="20" font-size="14" font-weight="600" fill="#222">영국 경상수지(HBOP) 분기 시계열 — 1997Q1 ~ 2025Q4</text>
  <text x="70" y="34" font-size="11" fill="#666">datasette 캔드 쿼리 q06_ts_current_account_quarterly 결과를 표준 라이브러리 SVG 로 캡처 (단위: GBP million, n = 116 분기, 출처: ONS BoP Statistical Bulletin Tables)</text>
  <line x1="70" y1="304.0" x2="856" y2="304.0" stroke="#e5e5e5" stroke-width="1"/><text x="64" y="308.0" text-anchor="end" font-size="11" fill="#555">-38,984</text><line x1="70" y1="250.4" x2="856" y2="250.4" stroke="#e5e5e5" stroke-width="1"/><text x="64" y="254.4" text-anchor="end" font-size="11" fill="#555">-29,635</text><line x1="70" y1="196.8" x2="856" y2="196.8" stroke="#e5e5e5" stroke-width="1"/><text x="64" y="200.8" text-anchor="end" font-size="11" fill="#555">-20,286</text><line x1="70" y1="143.2" x2="856" y2="143.2" stroke="#e5e5e5" stroke-width="1"/><text x="64" y="147.2" text-anchor="end" font-size="11" fill="#555">-10,936</text><line x1="70" y1="89.6" x2="856" y2="89.6" stroke="#e5e5e5" stroke-width="1"/><text x="64" y="93.6" text-anchor="end" font-size="11" fill="#555">-1,587</text><line x1="70" y1="36.0" x2="856" y2="36.0" stroke="#e5e5e5" stroke-width="1"/><text x="64" y="40.0" text-anchor="end" font-size="11" fill="#555">7,762</text><line x1="70" y1="80.5" x2="856" y2="80.5" stroke="#999" stroke-width="1.2" stroke-dasharray="4 3"/>
  <polyline points="70.0,77.3 76.8,86.8 83.7,82.0 90.5,85.1 97.3,98.9 104.2,92.5 111.0,69.7 117.8,78.3 124.7,123.1 131.5,111.4 138.3,116.5 145.2,99.2 152.0,105.3 158.9,105.8 165.7,114.8 172.5,113.3 179.4,97.6 186.2,114.7 193.0,116.1 199.9,111.2 206.7,112.2 213.5,127.0 220.4,107.5 227.2,111.6 234.0,97.3 240.9,117.7 247.7,130.9 254.5,108.4 261.4,124.9 268.2,127.1 275.0,142.6 281.9,103.6 288.7,121.1 295.5,93.1 302.4,135.7 309.2,132.3 316.1,152.4 322.9,139.4 329.7,151.1 336.6,142.1 343.4,166.6 350.2,142.3 357.1,178.9 363.9,164.5 370.7,161.9 377.6,175.9 384.4,163.4 391.2,173.6 398.1,169.7 404.9,165.5 411.7,131.0 418.6,128.8 425.4,136.2 432.2,132.7 439.1,156.6 445.9,151.7 452.7,99.4 459.6,110.1 466.4,145.0 473.3,123.5 480.1,124.4 486.9,173.4 493.8,154.3 500.6,177.5 507.4,191.3 514.3,181.7 521.1,194.8 527.9,217.2 534.8,184.8 541.6,185.2 548.4,207.0 555.3,262.6 562.1,228.3 568.9,162.0 575.8,197.5 582.6,262.8 589.4,240.9 596.3,224.7 603.1,268.0 609.9,191.2 616.8,169.0 623.6,210.4 630.5,179.2 637.3,169.7 644.1,200.6 651.0,177.0 657.8,188.3 664.6,219.5 671.5,269.4 678.3,155.4 685.1,154.3 692.0,63.2 698.8,152.8 705.6,127.7 712.5,134.0 719.3,238.9 726.1,99.7 733.0,51.8 739.8,169.7 746.6,101.4 753.5,289.6 760.3,171.0 767.1,94.4 774.0,50.4 780.8,194.0 787.7,279.3 794.5,170.7 801.3,241.3 808.2,200.0 815.0,214.3 821.8,160.2 828.7,238.7 835.5,203.2 842.3,213.6 849.2,141.8 856.0,185.9" fill="none" stroke="#1f77b4" stroke-width="1.6"/>
  <circle cx="856.0" cy="185.9" r="4" fill="#d62728" stroke="#fff" stroke-width="1.2"/>
  <text x="848.0" y="175.9" text-anchor="end" font-size="11" fill="#d62728" font-weight="600">2025Q4 · -18,392</text>
  <text x="70.0" y="322" text-anchor="middle" font-size="11" fill="#555">1997Q1</text><text x="268.2" y="322" text-anchor="middle" font-size="11" fill="#555">2004Q2</text><text x="466.4" y="322" text-anchor="middle" font-size="11" fill="#555">2011Q3</text><text x="657.8" y="322" text-anchor="middle" font-size="11" fill="#555">2018Q3</text><text x="856.0" y="322" text-anchor="middle" font-size="11" fill="#555">2025Q4</text>
  <line x1="70" y1="304" x2="856" y2="304" stroke="#bbb" stroke-width="1"/>
  <line x1="70" y1="36" x2="70" y2="304" stroke="#bbb" stroke-width="1"/>
</svg>
